<?xml version="1.0" standalone="no"?>
<!DOCTYPE svg PUBLIC "-//W3C//DTD SVG 20010904//EN"
 "http://www.w3.org/TR/2001/REC-SVG-20010904/DTD/svg10.dtd">
<svg version="1.0" xmlns="http://www.w3.org/2000/svg"
 width="232.000000pt" height="232.000000pt" viewBox="0 0 232.000000 232.000000"
 preserveAspectRatio="xMidYMid meet">
<metadata>
Created by potrace 1.11, written by Peter Selinger 2001-2013
</metadata>
<g transform="translate(0.000000,232.000000) scale(0.100000,-0.100000)"
fill="#000000" stroke="none">
<path d="M1107 2275 c-16 -8 -46 -20 -67 -26 -21 -6 -49 -21 -61 -33 -30 -27
-48 -35 -127 -52 -48 -10 -72 -22 -99 -48 -20 -19 -56 -42 -82 -51 -84 -30
-91 -34 -118 -74 -24 -34 -36 -42 -81 -51 -46 -10 -56 -17 -84 -58 -30 -45
-86 -104 -125 -133 -10 -8 -29 -36 -42 -64 -14 -27 -44 -68 -68 -91 -25 -24
-45 -54 -49 -72 -5 -22 -18 -39 -43 -54 -20 -12 -39 -27 -43 -32 -12 -17 -9
-81 3 -93 11 -11 4 -322 -18 -930 l-5 -123 25 0 c22 0 25 -5 31 -48 11 -83 55
-147 133 -196 49 -30 85 -33 139 -10 112 46 176 177 160 327 -7 67 -43 148
-84 186 l-26 24 25 -8 c62 -19 125 -114 136 -209 l6 -48 104 4 c81 4 103 2
103 -9 0 -10 -24 -13 -105 -13 -76 0 -107 -3 -109 -12 -2 -7 -11 -35 -20 -62
-13 -40 -14 -51 -4 -58 21 -13 81 -28 113 -28 33 0 108 31 119 49 12 19 25 12
42 -24 21 -45 69 -92 118 -116 49 -23 68 -24 126 -2 103 39 165 145 165 284 0
42 -6 87 -12 100 -6 13 -19 41 -28 61 -9 20 -29 49 -43 63 l-26 26 28 -11 c58
-22 111 -103 123 -186 l6 -47 196 7 c108 4 206 10 219 13 l22 5 0 719 c0 473
3 719 10 719 7 0 10 -166 10 -477 0 -572 9 -945 23 -936 6 4 8 258 5 699 l-4
693 28 -17 c15 -9 28 -24 28 -33 0 -16 168 -129 191 -129 5 0 9 -4 9 -8 0 -5
16 -14 35 -22 19 -8 35 -17 35 -21 0 -4 8 -9 18 -13 9 -3 50 -26 90 -51 41
-25 80 -45 88 -45 12 0 14 -76 15 -502 0 -508 2 -545 19 -562 7 -7 10 22 11
80 1 49 3 81 6 71 7 -25 25 -21 21 6 -2 12 -9 21 -16 19 -9 -1 -12 23 -12 93
0 84 2 95 18 95 14 0 15 2 2 10 -11 7 -16 34 -18 111 -3 80 -1 100 9 94 9 -6
10 -3 4 11 -22 52 -35 236 -15 204 8 -12 10 -10 10 8 0 13 -4 20 -10 17 -6 -4
-10 27 -10 85 0 58 4 89 10 85 6 -3 10 3 10 14 0 12 -4 21 -10 21 -5 0 -10 7
-10 16 0 14 3 14 15 4 8 -7 15 -9 15 -4 0 9 -28 44 -82 108 -32 36 -55 80 -62
117 -4 18 -14 29 -31 33 -14 3 -33 19 -42 34 -10 15 -23 33 -30 40 -7 7 -13
17 -13 22 0 4 -23 14 -51 21 -35 9 -67 27 -99 56 -27 24 -52 43 -58 43 -21 0
-65 29 -97 64 -27 30 -39 36 -74 36 -36 0 -47 6 -83 45 -29 31 -52 47 -77 51
-47 8 -109 67 -117 111 -5 28 -12 35 -48 45 -22 6 -52 22 -67 35 -20 19 -36
23 -85 23 -32 0 -72 -7 -87 -15z"/>
<path d="M1748 1718 c-7 -16 7 -46 17 -37 3 4 2 16 -3 29 -7 18 -10 20 -14 8z"/>
<path d="M1740 1468 c0 -19 18 -43 25 -36 9 9 -4 48 -16 48 -5 0 -9 -6 -9 -12z"/>
<path d="M1750 1211 c0 -11 5 -23 10 -26 6 -4 10 5 10 19 0 14 -4 26 -10 26
-5 0 -10 -9 -10 -19z"/>
<path d="M1747 973 c-8 -13 2 -43 14 -43 10 0 10 8 0 34 -5 12 -10 16 -14 9z"/>
<path d="M1747 713 c-8 -13 2 -43 14 -43 10 0 10 8 0 34 -5 12 -10 16 -14 9z"/>
<path d="M1750 431 c0 -11 4 -23 10 -26 6 -4 9 5 8 19 -3 30 -18 35 -18 7z"/>
<path d="M1800 423 c0 -12 5 -25 10 -28 13 -8 13 15 0 35 -8 12 -10 11 -10 -7z"/>
<path d="M1920 397 c0 -15 4 -27 10 -27 5 0 9 9 7 20 -5 31 -17 36 -17 7z"/>
<path d="M2103 364 c-3 -8 -1 -20 6 -27 8 -8 11 -4 11 16 0 30 -7 35 -17 11z"/>
<path d="M2253 334 c-3 -8 -1 -20 6 -27 8 -8 11 -4 11 16 0 30 -7 35 -17 11z"/>
<path d="M2300 310 c0 -11 5 -20 10 -20 6 0 10 9 10 20 0 11 -4 20 -10 20 -5
0 -10 -9 -10 -20z"/>
<path d="M1368 272 c43 -105 146 -161 248 -133 22 6 52 21 66 33 32 30 78 92
78 106 0 9 -55 12 -200 12 -186 0 -199 -1 -192 -18z"/>
</g>
</svg>
